<svg xmlns:dc="http://purl.org/dc/elements/1.1/" xmlns:cc="http://creativecommons.org/ns#" xmlns:rdf="http://www.w3.org/1999/02/22-rdf-syntax-ns#" xmlns:svg="http://www.w3.org/2000/svg" xmlns="http://www.w3.org/2000/svg" xmlns:sodipodi="http://sodipodi.sourceforge.net/DTD/sodipodi-0.dtd" xmlns:inkscape="http://www.inkscape.org/namespaces/inkscape" viewBox="0 0 48 60" version="1.1" x="0px" y="0px"><g><path style="color:#000000;font-style:normal;font-variant:normal;font-weight:normal;font-stretch:normal;font-size:medium;line-height:normal;font-family:sans-serif;font-variant-ligatures:normal;font-variant-position:normal;font-variant-caps:normal;font-variant-numeric:normal;font-variant-alternates:normal;font-feature-settings:normal;text-indent:0;text-align:start;text-decoration:none;text-decoration-line:none;text-decoration-style:solid;text-decoration-color:#000000;letter-spacing:normal;word-spacing:normal;text-transform:none;writing-mode:lr-tb;direction:ltr;text-orientation:mixed;dominant-baseline:auto;baseline-shift:baseline;text-anchor:start;white-space:normal;shape-padding:0;clip-rule:nonzero;display:inline;overflow:visible;visibility:visible;opacity:1;isolation:auto;mix-blend-mode:normal;color-interpolation:sRGB;color-interpolation-filters:linearRGB;solid-color:#000000;solid-opacity:1;vector-effect:none;fill:#000000;fill-opacity:1;fill-rule:evenodd;stroke:none;stroke-width:3.99999976;stroke-linecap:round;stroke-linejoin:round;stroke-miterlimit:4;stroke-dasharray:none;stroke-dashoffset:0;stroke-opacity:1;color-rendering:auto;image-rendering:auto;shape-rendering:auto;text-rendering:auto;enable-background:accumulate" d="m 41.806343,2.0004971 a 2.0002,2.0002 0 0 0 -1.970703,2.02734 V 43.971197 a 2.0002,2.0002 0 1 0 3.999999,0 V 4.0278371 a 2.0002,2.0002 0 0 0 -2.029296,-2.02734 z m -35.6152342,5.43164 a 2.0001999,2.0001999 0 0 0 -1.4375,3.4179699 L 17.609078,24.027837 4.7536088,37.207527 a 2.0006404,2.0006404 0 1 0 2.865234,2.79297 L 21.83564,25.424327 a 2.0001999,2.0001999 0 0 0 0,-2.79297 L 7.6188428,8.0571371 a 2.0001999,2.0001999 0 0 0 -1.427734,-0.625 z m 15.7832032,0 a 2.0001999,2.0001999 0 0 0 -1.435547,3.4179699 l 12.853516,13.17773 -12.853516,13.17969 a 2.0001999,2.0001999 0 1 0 2.863282,2.79297 l 14.216796,-14.57617 a 2.0001999,2.0001999 0 0 0 0,-2.79297 L 23.402047,8.0571371 a 2.0001999,2.0001999 0 0 0 -1.427735,-0.625 z"/></g><text x="0" y="63" fill="#000000" font-size="5px" font-weight="bold" font-family="'Helvetica Neue', Helvetica, Arial-Unicode, Arial, Sans-serif">Created by Kyle Dodson</text><text x="0" y="68" fill="#000000" font-size="5px" font-weight="bold" font-family="'Helvetica Neue', Helvetica, Arial-Unicode, Arial, Sans-serif">from the Noun Project</text></svg>